HIERARCHY
ROOT Root
{
  OFFSET 0.0 0.0 0.0
  CHANNELS 6 Xposition Yposition Zposition Zrotation Yrotation Xrotation
  JOINT Hips
  {
    OFFSET 0.0 100.0 0.0
    CHANNELS 6 Xposition Yposition Zposition Zrotation Yrotation Xrotation
    JOINT Spine1
    {
      OFFSET 5.003913 -0.037094 -0.013727
      CHANNELS 3 Zrotation Yrotation Xrotation
      JOINT Spine2
      {
        OFFSET 7.125363 -1e-06 0.0
        CHANNELS 3 Zrotation Yrotation Xrotation
        JOINT Chest
        {
          OFFSET 7.594027 1e-06 0.0
          CHANNELS 3 Zrotation Yrotation Xrotation
          JOINT Neck1
          {
            OFFSET 26.313086 -0.460272 -0.181672
            CHANNELS 3 Zrotation Yrotation Xrotation
            JOINT Neck2
            {
              OFFSET 8.045911 0.0 0.0
              CHANNELS 3 Zrotation Yrotation Xrotation
              JOINT Head
              {
                OFFSET 6.432774 0.0 0.0
                CHANNELS 3 Zrotation Yrotation Xrotation
                JOINT HeadEnd
                {
                  OFFSET 16.169773 0.06451 0.00362
                  CHANNELS 3 Zrotation Yrotation Xrotation
                }
                JOINT Jaw
                {
                  OFFSET 0.108741 3.12938 0.002639
                  CHANNELS 3 Zrotation Yrotation Xrotation
                }
                JOINT LeftEye
                {
                  OFFSET 4.45173 8.166359 3.206392
                  CHANNELS 3 Zrotation Yrotation Xrotation
                }
                JOINT RightEye
                {
                  OFFSET 4.436895 8.135758 -3.222429
                  CHANNELS 3 Zrotation Yrotation Xrotation
                }
              }
            }
          }
          JOINT LeftShoulder
          {
            OFFSET 23.218927 5.195579 1.621656
            CHANNELS 3 Zrotation Yrotation Xrotation
            JOINT LeftArm
            {
              OFFSET 15.902118 2e-06 -2e-06
              CHANNELS 3 Zrotation Yrotation Xrotation
              JOINT LeftForeArm
              {
                OFFSET 28.739307 0.0 -1e-06
                CHANNELS 3 Zrotation Yrotation Xrotation
                JOINT LeftHand
                {
                  OFFSET 27.093981 -4e-06 0.0
                  CHANNELS 3 Zrotation Yrotation Xrotation
                  JOINT LeftHandThumb1
                  {
                    OFFSET 2.276781 3.380274 0.83384
                    CHANNELS 3 Zrotation Yrotation Xrotation
                    JOINT LeftHandThumb2
                    {
                      OFFSET 4.705309 -1e-06 -1e-06
                      CHANNELS 3 Zrotation Yrotation Xrotation
                      JOINT LeftHandThumb3
                      {
                        OFFSET 2.798515 0.0 3e-06
                        CHANNELS 3 Zrotation Yrotation Xrotation
                        JOINT LeftHandThumbEnd
                        {
                          OFFSET 3.180793 4e-06 -4e-06
                          CHANNELS 3 Zrotation Yrotation Xrotation
                        }
                      }
                    }
                  }
                  JOINT LeftHandIndex1
                  {
                    OFFSET 3.247786 2.352677 0.137192
                    CHANNELS 3 Zrotation Yrotation Xrotation
                    JOINT LeftHandIndex2
                    {
                      OFFSET 6.367095 1e-06 0.0
                      CHANNELS 3 Zrotation Yrotation Xrotation
                      JOINT LeftHandIndex3
                      {
                        OFFSET 3.662364 0.0 0.0
                        CHANNELS 3 Zrotation Yrotation Xrotation
                        JOINT LeftHandIndex4
                        {
                          OFFSET 2.329242 4e-06 -4e-06
                          CHANNELS 3 Zrotation Yrotation Xrotation
                          JOINT LeftHandIndexEnd
                          {
                            OFFSET 2.767823 1e-06 0.0
                            CHANNELS 3 Zrotation Yrotation Xrotation
                          }
                        }
                      }
                    }
                  }
                  JOINT LeftHandMiddle1
                  {
                    OFFSET 3.163612 0.945023 -0.406112
                    CHANNELS 3 Zrotation Yrotation Xrotation
                    JOINT LeftHandMiddle2
                    {
                      OFFSET 6.276789 3e-06 0.0
                      CHANNELS 3 Zrotation Yrotation Xrotation
                      JOINT LeftHandMiddle3
                      {
                        OFFSET 4.35652 -1e-06 4e-06
                        CHANNELS 3 Zrotation Yrotation Xrotation
                        JOINT LeftHandMiddle4
                        {
                          OFFSET 2.996877 0.0 8e-06
                          CHANNELS 3 Zrotation Yrotation Xrotation
                          JOINT LeftHandMiddleEnd
                          {
                            OFFSET 2.323256 3e-06 -4e-06
                            CHANNELS 3 Zrotation Yrotation Xrotation
                          }
                        }
                      }
                    }
                  }
                  JOINT LeftHandRing1
                  {
                    OFFSET 2.882606 -0.309162 0.107445
                    CHANNELS 3 Zrotation Yrotation Xrotation
                    JOINT LeftHandRing2
                    {
                      OFFSET 6.033198 0.0 4e-06
                      CHANNELS 3 Zrotation Yrotation Xrotation
                      JOINT LeftHandRing3
                      {
                        OFFSET 4.350578 3e-06 0.0
                        CHANNELS 3 Zrotation Yrotation Xrotation
                        JOINT LeftHandRing4
                        {
                          OFFSET 2.651321 2e-06 -7e-06
                          CHANNELS 3 Zrotation Yrotation Xrotation
                          JOINT LeftHandRingEnd
                          {
                            OFFSET 1.937663 1e-06 -4e-06
                            CHANNELS 3 Zrotation Yrotation Xrotation
                          }
                        }
                      }
                    }
                  }
                  JOINT LeftHandPinky1
                  {
                    OFFSET 2.865315 -1.525436 0.575687
                    CHANNELS 3 Zrotation Yrotation Xrotation
                    JOINT LeftHandPinky2
                    {
                      OFFSET 5.54936 1e-06 -8e-06
                      CHANNELS 3 Zrotation Yrotation Xrotation
                      JOINT LeftHandPinky3
                      {
                        OFFSET 3.070974 0.0 -4e-06
                        CHANNELS 3 Zrotation Yrotation Xrotation
                        JOINT LeftHandPinky4
                        {
                          OFFSET 1.549672 1e-06 0.0
                          CHANNELS 3 Zrotation Yrotation Xrotation
                          JOINT LeftHandPinkyEnd
                          {
                            OFFSET 1.952123 0.0 0.0
                            CHANNELS 3 Zrotation Yrotation Xrotation
                          }
                        }
                      }
                    }
                  }
                }
              }
            }
          }
          JOINT RightShoulder
          {
            OFFSET 23.161716 5.296122 -1.380114
            CHANNELS 3 Zrotation Yrotation Xrotation
            JOINT RightArm
            {
              OFFSET -16.027195 -2e-06 1.1e-05
              CHANNELS 3 Zrotation Yrotation Xrotation
              JOINT RightForeArm
              {
                OFFSET -28.736639 4e-06 2e-06
                CHANNELS 3 Zrotation Yrotation Xrotation
                JOINT RightHand
                {
                  OFFSET -27.133619 6e-06 0.0
                  CHANNELS 3 Zrotation Yrotation Xrotation
                  JOINT RightHandThumb1
                  {
                    OFFSET -2.274328 -3.351035 -0.83067
                    CHANNELS 3 Zrotation Yrotation Xrotation
                    JOINT RightHandThumb2
                    {
                      OFFSET -4.703594 -3e-06 2e-06
                      CHANNELS 3 Zrotation Yrotation Xrotation
                      JOINT RightHandThumb3
                      {
                        OFFSET -2.794935 -4e-06 -3e-06
                        CHANNELS 3 Zrotation Yrotation Xrotation
                        JOINT RightHandThumbEnd
                        {
                          OFFSET -3.183852 4e-06 1e-06
                          CHANNELS 3 Zrotation Yrotation Xrotation
                        }
                      }
                    }
                  }
                  JOINT RightHandIndex1
                  {
                    OFFSET -3.253496 -2.33755 -0.127667
                    CHANNELS 3 Zrotation Yrotation Xrotation
                    JOINT RightHandIndex2
                    {
                      OFFSET -6.344434 0.0 0.0
                      CHANNELS 3 Zrotation Yrotation Xrotation
                      JOINT RightHandIndex3
                      {
                        OFFSET -3.654871 0.0 -8e-06
                        CHANNELS 3 Zrotation Yrotation Xrotation
                        JOINT RightHandIndex4
                        {
                          OFFSET -2.327586 -1e-06 0.0
                          CHANNELS 3 Zrotation Yrotation Xrotation
                          JOINT RightHandIndexEnd
                          {
                            OFFSET -2.770001 3e-06 8e-06
                            CHANNELS 3 Zrotation Yrotation Xrotation
                          }
                        }
                      }
                    }
                  }
                  JOINT RightHandMiddle1
                  {
                    OFFSET -3.168223 -0.944764 0.411762
                    CHANNELS 3 Zrotation Yrotation Xrotation
                    JOINT RightHandMiddle2
                    {
                      OFFSET -6.266691 -1e-06 -4e-06
                      CHANNELS 3 Zrotation Yrotation Xrotation
                      JOINT RightHandMiddle3
                      {
                        OFFSET -4.348901 0.0 0.0
                        CHANNELS 3 Zrotation Yrotation Xrotation
                        JOINT RightHandMiddle4
                        {
                          OFFSET -3.00024 2e-06 -4e-06
                          CHANNELS 3 Zrotation Yrotation Xrotation
                          JOINT RightHandMiddleEnd
                          {
                            OFFSET -2.321477 -4e-06 -4e-06
                            CHANNELS 3 Zrotation Yrotation Xrotation
                          }
                        }
                      }
                    }
                  }
                  JOINT RightHandRing1
                  {
                    OFFSET -2.885654 0.293261 -0.119232
                    CHANNELS 3 Zrotation Yrotation Xrotation
                    JOINT RightHandRing2
                    {
                      OFFSET -6.032835 -1e-06 -4e-06
                      CHANNELS 3 Zrotation Yrotation Xrotation
                      JOINT RightHandRing3
                      {
                        OFFSET -4.33881 0.0 -4e-06
                        CHANNELS 3 Zrotation Yrotation Xrotation
                        JOINT RightHandRing4
                        {
                          OFFSET -2.654903 -4e-06 -4e-06
                          CHANNELS 3 Zrotation Yrotation Xrotation
                          JOINT RightHandRingEnd
                          {
                            OFFSET -1.935122 0.0 4e-06
                            CHANNELS 3 Zrotation Yrotation Xrotation
                          }
                        }
                      }
                    }
                  }
                  JOINT RightHandPinky1
                  {
                    OFFSET -2.866241 1.503904 -0.60527
                    CHANNELS 3 Zrotation Yrotation Xrotation
                    JOINT RightHandPinky2
                    {
                      OFFSET -5.553177 -2e-06 0.0
                      CHANNELS 3 Zrotation Yrotation Xrotation
                      JOINT RightHandPinky3
                      {
                        OFFSET -3.062664 -1e-06 -4e-06
                        CHANNELS 3 Zrotation Yrotation Xrotation
                        JOINT RightHandPinky4
                        {
                          OFFSET -1.546529 2e-06 4e-06
                          CHANNELS 3 Zrotation Yrotation Xrotation
                          JOINT RightHandPinkyEnd
                          {
                            OFFSET -1.952341 0.0 -4e-06
                            CHANNELS 3 Zrotation Yrotation Xrotation
                          }
                        }
                      }
                    }
                  }
                }
              }
            }
          }
        }
      }
    }
    JOINT LeftLeg
    {
      OFFSET -8.443107 2.567604 10.043214
      CHANNELS 3 Zrotation Yrotation Xrotation
      JOINT LeftShin
      {
        OFFSET 43.229198 1e-06 -1e-06
        CHANNELS 3 Zrotation Yrotation Xrotation
        JOINT LeftFoot
        {
          OFFSET 42.298611 1e-06 1e-06
          CHANNELS 3 Zrotation Yrotation Xrotation
          JOINT LeftToeBase
          {
            OFFSET 14.165858 1e-06 0.0
            CHANNELS 3 Zrotation Yrotation Xrotation
            JOINT LeftToeEnd
            {
              OFFSET 6.7141 -0.234461 0.0
              CHANNELS 3 Zrotation Yrotation Xrotation
            }
          }
        }
      }
    }
    JOINT RightLeg
    {
      OFFSET -8.303923 2.592729 -10.047278
      CHANNELS 3 Zrotation Yrotation Xrotation
      JOINT RightShin
      {
        OFFSET -43.369682 0.0 1e-06
        CHANNELS 3 Zrotation Yrotation Xrotation
        JOINT RightFoot
        {
          OFFSET -42.260784 4e-06 2e-06
          CHANNELS 3 Zrotation Yrotation Xrotation
          JOINT RightToeBase
          {
            OFFSET -14.222245 -2e-06 -1e-06
            CHANNELS 3 Zrotation Yrotation Xrotation
            JOINT RightToeEnd
            {
              OFFSET -6.660062 0.232574 -2e-06
              CHANNELS 3 Zrotation Yrotation Xrotation
            }
          }
        }
      }
    }
  }
}
MOTION
Frames: 4
Frame Time: 0.03333333333333333
0.0 0.0 0.0 0.0 -0.0 0.0 -4.593009 97.476837 -17.129478 82.584175 -14.686853 84.89431 9.298045 -2.085711 0.517739 -6.584553 -0.655421 0.966155 20.703918 -1.597988 -1.219301 9.692496 7.829024 2.464897 -2.592396 -1.166775 2.021039 -45.283836 5.75678 -2.767595 6e-06 -0.0 -0.0 0.117699 0.000656 0.065047 0.070794 0.000589 0.054575 0.064226 0.001067 0.063162 -2.101862 -73.97184 10.272223 86.922081 -24.071398 -43.830494 44.949261 1.311378 2.393134 35.934074 24.96303 42.108688 17.636627 -26.322725 52.411186 -19.466661 -14.395598 29.410389 -1e-06 -8.774823 1e-06 16.648497 -18.224342 5.854392 -0.609779 -1.795653 -3.889327 -4.807086 -11.046811 -2.937848 5e-06 -20.976015 -2e-06 -5.019967 -25.033554 -4.03188 5e-06 -1e-06 -2e-06 -10.634533 -5.686969 -3.565587 10.573275 -17.922951 -3.113902 2e-06 -13.821205 1e-06 -0.501774 -31.181498 -4.027017 -12.386608 -60.469723 8.846593 -13.982713 -7.150199 -2.875038 13.772731 -8.40149 -3.218243 0.347735 -34.211555 0.771654 -0.963028 -17.733368 2.621022 -1e-06 1e-06 3e-06 -17.346415 -20.095215 -4.201779 21.757559 -1.638376 3.866427 1e-06 -6.338824 -3e-06 -1.697591 -22.59174 -6.194005 -1e-06 -4e-06 -1e-06 -178.308746 -85.380898 7.549085 93.487465 -32.763191 -53.010788 76.188278 0.163338 -0.381178 24.217329 25.147972 40.03714 22.182108 -20.375893 49.933319 -16.701815 -16.743528 28.47653 -5e-06 -12.690602 -0.0 16.280666 -17.575012 2.465359 -0.105918 -1.513856 -4.275882 -5.039042 -5.61287 -2.953555 4e-06 -11.020525 -2e-06 -6.111296 -15.895338 -3.840469 0.0 0.0 1e-06 -10.283369 -5.680288 -4.341837 11.028295 -11.302405 -2.372634 -1.384267 -14.238583 -6.320121 -0.625435 -26.924198 -3.827599 -4.936097 -48.933819 -2.814269 -13.708524 -7.363476 -3.720938 18.141148 -14.05274 -3.242675 7e-06 -18.78727 -3e-06 -0.429709 -8.456043 2.555505 0.0 -1e-06 -0.0 -15.923532 -20.094482 -5.473583 30.419207 -7.190827 1.735924 3e-06 -8.162925 0.0 -1.861901 -22.861469 -6.167941 1e-06 -2e-06 -2e-06 144.645752 -12.484044 6.715675 41.6422 -0.352604 0.372825 -86.420654 -6.755363 -7.486802 -4.492923 1.800069 2.257945 -0.999998 0.0 0.0 -35.629795 -18.725464 -14.730602 46.490578 -0.557878 1.518008 -59.136284 20.178537 -4.909377 -15.280537 0.307977 1.244424 -1.000002 0.0 -0.0 
0.0 0.0 0.0 0.0 -0.0 0.0 -5.517157 96.434196 -16.287741 85.723763 -14.615201 85.835068 8.243565 -2.868918 0.238489 -7.107155 -0.939358 0.71388 20.362526 -2.508325 -1.383315 9.41432 6.651643 2.293821 -2.550201 -1.055271 1.753756 -45.044544 4.164781 -2.562385 6e-06 -0.0 -0.0 0.111288 0.011932 -0.021461 0.02702 0.011781 -0.044077 -0.006475 0.011062 0.001161 -3.376146 -76.986374 12.119675 81.641708 -33.366631 -45.351707 48.589764 3.041896 2.236736 32.813931 23.611658 35.975323 17.63662 -26.322723 52.411194 -19.46665 -14.395594 29.410385 -1e-06 -8.774819 -2e-06 16.353437 -18.112185 5.739254 -0.609776 -1.795654 -3.889324 -4.807088 -11.046807 -2.937853 4e-06 -20.976013 1e-06 -5.019965 -25.033546 -4.031881 7e-06 0.0 -0.0 -10.634532 -5.68697 -3.565586 10.573272 -17.922945 -3.113899 2e-06 -13.821204 2e-06 -0.501777 -31.181488 -4.027016 -11.763909 -59.898617 7.925365 -13.982711 -7.150196 -2.875043 13.772726 -8.401489 -3.21824 0.347735 -34.211544 0.771655 -0.963024 -17.733366 2.621017 0.0 -1e-06 -0.0 -17.346413 -20.095213 -4.201783 21.757555 -1.638377 3.866431 2e-06 -6.338823 2e-06 -1.697586 -22.591738 -6.194006 -3e-06 -4e-06 -1e-06 166.132248 -86.923744 23.869202 89.888954 -36.987953 -49.445602 76.619987 -0.053796 -0.407419 22.429285 25.074888 33.752792 22.18211 -20.375895 49.933308 -16.701807 -16.743528 28.476519 -3e-06 -12.690598 0.0 16.131079 -17.980667 2.765105 -0.105919 -1.513856 -4.275881 -5.03904 -5.612868 -2.953556 4e-06 -11.02052 -1e-06 -6.111296 -15.895328 -3.840467 2e-06 -0.0 0.0 -10.283367 -5.680284 -4.341838 11.028289 -11.302404 -2.372629 -1.384268 -14.238577 -6.320118 -0.625441 -26.924181 -3.827597 -4.725156 -49.118088 -3.305928 -13.708519 -7.363472 -3.720938 18.141142 -14.052737 -3.242671 8e-06 -18.787266 -0.0 -0.429713 -8.456045 2.555504 -1e-06 -0.0 -0.0 -15.92353 -20.094477 -5.473584 30.419205 -7.190825 1.735927 4e-06 -8.162925 -0.0 -1.861903 -22.861467 -6.167939 -0.0 -3e-06 -2e-06 144.475296 -8.438229 8.360055 42.99601 -0.343831 0.364806 -88.374565 -6.892258 -7.966982 -4.508206 1.762443 2.222268 -0.999999 -0.0 -0.0 -25.928843 -16.026348 -9.445284 29.004484 -0.414714 1.252912 -70.268959 13.672668 -13.26426 -11.72049 0.515208 1.53384 -1.000001 -0.0 0.0 
0.0 0.0 0.0 0.0 -0.0 0.0 -6.088183 95.984024 -16.054344 87.115494 -14.481089 85.050995 7.478974 -2.148895 0.517152 -7.327369 -1.02801 0.98791 20.553118 -3.168094 -1.230559 7.943554 4.822351 2.354109 -2.648561 -1.017082 1.904787 -44.683052 3.312064 -2.162502 6e-06 -0.0 0.0 0.059811 0.019451 -0.068362 0.019199 0.008831 -0.091503 -0.021454 0.028398 -0.040102 -12.795972 -82.641762 21.868607 71.183556 -39.345951 -42.887913 55.561462 2.83504 2.079208 26.989319 20.30962 33.358383 17.636625 -26.322721 52.411194 -19.466665 -14.395598 29.410395 -1e-06 -8.774822 -2e-06 15.87782 -18.309872 5.862128 -0.609777 -1.795653 -3.889329 -4.80709 -11.046813 -2.93785 5e-06 -20.976019 -4e-06 -5.01997 -25.03356 -4.031882 6e-06 0.0 -1e-06 -10.634535 -5.68697 -3.565586 10.573275 -17.922951 -3.113901 3e-06 -13.821211 2e-06 -0.501777 -31.181505 -4.02702 -11.551007 -59.238472 7.453318 -13.982715 -7.150197 -2.875041 13.772731 -8.401491 -3.218241 0.347738 -34.211555 0.771651 -0.963027 -17.73337 2.621019 -0.0 0.0 -1e-06 -17.346416 -20.095217 -4.201782 21.757559 -1.638375 3.866427 0.0 -6.338823 0.0 -1.697588 -22.591747 -6.194009 -2e-06 -5e-06 -1e-06 152.407974 -87.988998 38.090847 83.822044 -38.897205 -42.937401 78.596558 -0.328359 -0.571109 18.423763 25.705498 27.007599 22.182106 -20.375883 49.933308 -16.701813 -16.74353 28.47653 -3e-06 -12.690599 0.0 16.355566 -18.054033 2.719246 -0.105919 -1.513857 -4.27588 -5.03904 -5.612869 -2.953557 4e-06 -11.02052 -2e-06 -6.111295 -15.89533 -3.840472 3e-06 -1e-06 -1e-06 -10.283367 -5.680288 -4.341835 11.028292 -11.302402 -2.372635 -1.384269 -14.238582 -6.320121 -0.625437 -26.924183 -3.827602 -5.084161 -49.391624 -3.310376 -13.708521 -7.363475 -3.720936 18.141146 -14.052736 -3.242671 8e-06 -18.787266 -4e-06 -0.429713 -8.456041 2.555503 -0.0 -0.0 1e-06 -15.923532 -20.094481 -5.473583 30.419207 -7.190823 1.735925 4e-06 -8.162929 -1e-06 -1.861899 -22.861464 -6.167943 0.0 -2e-06 -2e-06 144.595505 -7.586564 7.937525 43.78146 -0.300843 0.395399 -89.193871 -6.425853 -8.256451 -4.437545 1.656132 2.19829 -0.999998 0.0 0.0 -21.296192 -14.578508 -3.645953 19.316042 -0.516459 0.595777 -76.873672 5.538013 -17.451334 -6.00715 0.641754 1.645313 -1.000001 -1e-06 0.0 
0.0 0.0 0.0 0.0 -0.0 0.0 -6.137531 95.99929 -16.058146 87.920944 -13.711497 84.01506 7.245821 -1.467679 0.659234 -7.343726 -0.929342 1.345607 20.512209 -3.28475 -1.151942 7.405045 2.960443 2.559026 -2.757477 -0.875117 2.110502 -44.392426 3.088869 -1.185308 6e-06 0.0 0.0 0.028147 0.001815 -0.181461 -0.032899 -0.022549 -0.202911 -0.048313 0.022682 -0.15501 -32.968342 -83.898735 42.142944 64.416893 -43.418331 -43.108856 60.92664 1.955917 1.546148 24.877823 18.362322 32.979847 17.636627 -26.322737 52.411198 -19.466665 -14.395598 29.410389 -1e-06 -8.774822 -1e-06 15.904301 -18.159128 5.770944 -0.609776 -1.795654 -3.889324 -4.807088 -11.046813 -2.937854 3e-06 -20.976019 1e-06 -5.019969 -25.03356 -4.03188 4e-06 1e-06 -1e-06 -10.634535 -5.686972 -3.565586 10.573277 -17.922949 -3.113901 2e-06 -13.821211 2e-06 -0.50178 -31.181505 -4.027015 -11.181032 -58.943222 7.144475 -13.982714 -7.150198 -2.875041 13.77273 -8.401495 -3.218242 0.347737 -34.211559 0.771654 -0.96303 -17.733372 2.621021 0.0 0.0 0.0 -17.346416 -20.095217 -4.20178 21.757561 -1.638378 3.866424 1e-06 -6.338824 2e-06 -1.697591 -22.591745 -6.194005 -3e-06 -4e-06 -0.0 163.658173 -85.39785 26.821238 81.591621 -41.145134 -41.691429 81.214989 -0.440398 -0.706984 15.094498 26.048258 21.256207 22.182121 -20.3759 49.933327 -16.701817 -16.74353 28.476536 -2e-06 -12.690603 -3e-06 16.152197 -17.780804 2.705775 -0.105918 -1.513856 -4.275882 -5.039042 -5.612869 -2.953553 5e-06 -11.020526 -4e-06 -6.1113 -15.895332 -3.84047 -1e-06 -2e-06 -1e-06 -10.283371 -5.680287 -4.341839 11.028295 -11.302406 -2.37263 -1.384268 -14.238577 -6.320121 -0.625438 -26.924187 -3.827601 -4.802322 -49.299194 -3.466682 -13.708526 -7.363477 -3.720941 18.14115 -14.052739 -3.242673 8e-06 -18.78727 -2e-06 -0.429711 -8.456043 2.555505 0.0 0.0 0.0 -15.923536 -20.094482 -5.473587 30.419222 -7.190828 1.735929 4e-06 -8.162929 0.0 -1.861903 -22.861473 -6.167941 1e-06 -2e-06 -1e-06 146.187149 -7.324437 6.760223 42.708458 -0.331832 0.412652 -89.631477 -6.549407 -7.501735 -4.492229 1.598175 2.182997 -0.999999 -0.0 -0.0 -19.588026 -15.091322 -3.35559 16.654272 -0.393527 0.530285 -77.094345 5.211829 -18.346174 -5.323498 0.699139 1.644774 -1.000003 -0.0 -0.0 
